<svg height="512" viewBox="0 0 64 64" width="512" xmlns="http://www.w3.org/2000/svg"><g id="Free"><path d="m51 34h-4v8a2 2 0 0 0 2 2h12a10 10 0 0 0 -10-10z" fill="#f1f2f2"/><path d="m47 42v-8h-4v20h18v-10h-12a2 2 0 0 1 -2-2z" fill="#1a6fb0"/><path d="m59 44h2v10h-2z" fill="#17619a"/><path d="m47 44h2a2 2 0 0 1 -2-2v-8h-2v8a2 2 0 0 0 2 2z" fill="#17619a"/><path d="m3 42h40v6h-40z" fill="#ffb655"/><path d="m43 22a2 2 0 0 0 -2-2h-36a2 2 0 0 0 -2 2v4h40z" fill="#ffb655"/><path d="m3 26h40v16h-40z" fill="#ffcd00"/><path d="m41 42h2v6h-2z" fill="#ffa733"/><path d="m41 20h-2a2 2 0 0 1 2 2v4h2v-4a2 2 0 0 0 -2-2z" fill="#ffa733"/><path d="m41 26h2v16h-2z" fill="#ebbf00"/><path d="m21 32a2 2 0 0 0 -2-2h-2v4h2a2 2 0 0 0 2-2z" fill="#ffcd00"/><path d="m3 48h40v6h-40z" fill="#1e81ce"/><path d="m3 54h58a0 0 0 0 1 0 0v2a2 2 0 0 1 -2 2h-54a2 2 0 0 1 -2-2v-2a0 0 0 0 1 0 0z" fill="#3d9ae2"/><path d="m59 54v2a2 2 0 0 1 -2 2h2a2 2 0 0 0 2-2v-2z" fill="#1e81ce"/><circle cx="52" cy="56" fill="#58595b" r="5"/><circle cx="17" cy="56" fill="#58595b" r="5"/><g fill="#231f20"><path d="m51 33h-7v-11a3 3 0 0 0 -3-3h-36a3 3 0 0 0 -3 3v34a3 3 0 0 0 3 3h6.812a5.986 5.986 0 0 0 10.376 0h24.624a5.986 5.986 0 0 0 10.376 0h1.812a3 3 0 0 0 3-3v-12a11.013 11.013 0 0 0 -11-11zm8.941 10h-10.941a1 1 0 0 1 -1-1v-7h3a9.011 9.011 0 0 1 8.941 8zm-13.941-8v7a3 3 0 0 0 3 3h11v8h-2.812a5.986 5.986 0 0 0 -10.376 0h-2.812v-18zm-23.812 18a5.986 5.986 0 0 0 -10.376 0h-7.812v-4h38v4zm-18.188-26h38v14h-38zm38 16v4h-38v-4zm-37-22h36a1 1 0 0 1 1 1v3h-38v-3a1 1 0 0 1 1-1zm0 36a1 1 0 0 1 -1-1v-1h7.09a5.6 5.6 0 0 0 0 2zm12 3a4 4 0 1 1 4-4 4 4 0 0 1 -4 4zm5.91-3a5.6 5.6 0 0 0 0-2h23.18a5.6 5.6 0 0 0 0 2zm29.09 3a4 4 0 1 1 4-4 4 4 0 0 1 -4 4zm8-4a1 1 0 0 1 -1 1h-1.09a5.6 5.6 0 0 0 0-2h2.09z"/><path d="m14 29h-3a2 2 0 0 0 -2 2v7a1 1 0 0 0 2 0v-3h2a1 1 0 0 0 0-2h-2v-2h3a1 1 0 0 0 0-2z"/><path d="m29 31a1 1 0 0 0 0-2h-3a2 2 0 0 0 -2 2v6a2 2 0 0 0 2 2h3a1 1 0 0 0 0-2h-3v-2h2a1 1 0 0 0 0-2h-2v-2z"/><path d="m36 31a1 1 0 0 0 0-2h-3a2 2 0 0 0 -2 2v6a2 2 0 0 0 2 2h3a1 1 0 0 0 0-2h-3v-2h2a1 1 0 0 0 0-2h-2v-2z"/><path d="m22 32a3 3 0 0 0 -3-3h-2a1 1 0 0 0 -1 1v8a1 1 0 0 0 2 0v-2.333l2.2 2.933a1 1 0 1 0 1.6-1.2l-1.912-2.549a3 3 0 0 0 2.112-2.851zm-3 1h-1v-2h1a1 1 0 0 1 0 2z"/></g></g></svg>